# xmcd
#
# Track frame offsets: 
#        150
#        17505
#        35182
#        51177
#        72062
#        87877
#        106695
#        126992
#        148940
#        164787
#
# Disc length: 2425 seconds
#
# Revision: 4
# Processed by: cddbd v1.4PL0 Copyright (c) Steve Scherf et al.
# Submitted via: ExactAudioCopy v0.90b4
#
DISCID=8c09770a
DTITLE=The Charlie Daniels Band - Windows
DYEAR=1900
DGENRE=Country
TTITLE0=Still in Saigon
TTITLE1=Ain't no ramblers anymore
TTITLE2=The lady in red
TTITLE3=We had it all one time
TTITLE4=Partyin' gal
TTITLE5=Ragin' Cajun
TTITLE6=Makes you want to go home
TTITLE7=Blowing along with the wind
TTITLE8=Nashville moon
TTITLE9=The universal hand
EXTD=
EXTT0=
EXTT1=
EXTT2=
EXTT3=
EXTT4=
EXTT5=
EXTT6=
EXTT7=
EXTT8=
EXTT9=
PLAYORDER=
